<svg width="10" height="3" viewBox="0 0 10 3" fill="none" xmlns="http://www.w3.org/2000/svg">
<path d="M0.125977 1.03223C0.125977 0.699544 0.212565 0.444336 0.385742 0.266602C0.558919 0.0888672 0.80957 0 1.1377 0C1.47038 0 1.72331 0.0934245 1.89648 0.280273C2.06966 0.462565 2.15625 0.713216 2.15625 1.03223C2.15625 1.35579 2.06738 1.61328 1.88965 1.80469C1.71647 1.99154 1.46582 2.08496 1.1377 2.08496C0.80957 2.08496 0.558919 1.99154 0.385742 1.80469C0.212565 1.61784 0.125977 1.36035 0.125977 1.03223Z" fill="#697488"/>
<path d="M3.98145 1.03223C3.98145 0.699544 4.06803 0.444336 4.24121 0.266602C4.41439 0.0888672 4.66504 0 4.99316 0C5.32585 0 5.57878 0.0934245 5.75195 0.280273C5.92513 0.462565 6.01172 0.713216 6.01172 1.03223C6.01172 1.35579 5.92285 1.61328 5.74512 1.80469C5.57194 1.99154 5.32129 2.08496 4.99316 2.08496C4.66504 2.08496 4.41439 1.99154 4.24121 1.80469C4.06803 1.61784 3.98145 1.36035 3.98145 1.03223Z" fill="#697488"/>
<path d="M7.83691 1.03223C7.83691 0.699544 7.9235 0.444336 8.09668 0.266602C8.26986 0.0888672 8.52051 0 8.84863 0C9.18132 0 9.43425 0.0934245 9.60742 0.280273C9.7806 0.462565 9.86719 0.713216 9.86719 1.03223C9.86719 1.35579 9.77832 1.61328 9.60059 1.80469C9.42741 1.99154 9.17676 2.08496 8.84863 2.08496C8.52051 2.08496 8.26986 1.99154 8.09668 1.80469C7.9235 1.61784 7.83691 1.36035 7.83691 1.03223Z" fill="#697488"/>
</svg>
